<svg xmlns="http://www.w3.org/2000/svg" width="889.86" height="142.32" viewBox="0 0 889.86 142.32" role="img" aria-labelledby="title desc">
  <title id="title">BuilderK wordmark</title>
  <desc id="desc">BuilderK brand asset generated from the current builderk.com wordmark style.</desc>

  <path fill="#FFFFFF" transform="translate(-4.62 134.16) scale(0.18 -0.18)" d="M221 0V144H352Q390 144 413.0 164.5Q436 185 436 221Q436 245 425.5 262.5Q415 280 396.5 289.0Q378 298 352 298H221V436H343Q375 436 396.0 452.0Q417 468 417 502Q417 536 396.0 552.0Q375 568 343 568H221V712H399Q464 712 512.5 687.5Q561 663 588.0 620.5Q615 578 615 523Q615 447 561.0 399.0Q507 351 403 344L401 413Q514 406 574.0 351.0Q634 296 634 210Q634 148 603.0 100.5Q572 53 516.5 26.5Q461 0 387 0ZM59 0V712H255V0Z"/>
  <path fill="#FFFFFF" transform="translate(110.4 134.16) scale(0.18 -0.18)" d="M358 -12Q264 -12 194.0 26.5Q124 65 85.0 133.0Q46 201 46 289V712H246V271Q246 237 261.0 213.0Q276 189 301.5 176.5Q327 164 358 164Q390 164 414.5 176.5Q439 189 453.0 212.5Q467 236 467 270V712H668V288Q668 200 629.5 132.5Q591 65 521.5 26.5Q452 -12 358 -12Z"/>
  <path fill="#FFFFFF" transform="translate(235.32 134.16) scale(0.18 -0.18)" d="M59 0V712H259V0Z"/>
  <path fill="#FFFFFF" transform="translate(288.96 134.16) scale(0.18 -0.18)" d="M59 0V712H259V0ZM222 0V170H555V0Z"/>
  <path fill="#FFFFFF" transform="translate(388.32 134.16) scale(0.18 -0.18)" d="M193 0V170H359Q415 170 456.0 190.5Q497 211 519.0 253.0Q541 295 541 357Q541 419 518.5 460.0Q496 501 455.5 521.5Q415 542 359 542H183V712H359Q443 712 513.5 687.0Q584 662 636.0 615.0Q688 568 716.5 502.5Q745 437 745 356Q745 275 716.5 209.5Q688 144 636.0 97.0Q584 50 514.0 25.0Q444 0 361 0ZM59 0V712H259V0Z"/>
  <path fill="#FFFFFF" transform="translate(522.96 134.16) scale(0.18 -0.18)" d="M59 0V712H259V0ZM221 0V166H603V0ZM221 282V444H566V282ZM221 546V712H597V546Z"/>
  <path fill="#FFFFFF" transform="translate(634.38 134.16) scale(0.18 -0.18)" d="M221 284V422H342Q383 422 404.5 442.0Q426 462 426 495Q426 528 404.5 548.0Q383 568 342 568H221V712H374Q448 712 504.0 685.0Q560 658 592.0 610.0Q624 562 624 498Q624 434 591.5 386.0Q559 338 501.0 311.0Q443 284 364 284ZM59 0V712H259V0ZM443 0 249 304 429 343 670 0Z"/>
  <path fill="#F77F00" transform="translate(752.28 134.16) scale(0.18 -0.18)" d="M491 0 242 371 479 712H720L446 342V406L731 0ZM59 0V712H259V0Z"/>
</svg>
