<svg xmlns="http://www.w3.org/2000/svg" viewBox="0 0 1500 800" role="img" aria-labelledby="title desc">
  <title id="title">3,050 sq ft two story floor plan</title>
  <desc id="desc">4 bedroom, 3.5 bath two story concept floor plan with 3-Car garage.</desc>
  <rect width="1500" height="800" fill="#faf8f3"/>
  <rect x="24" y="24" width="1452" height="752" rx="24" fill="#fff" stroke="#e8e0d0" stroke-width="4"/>
  <text x="50" y="58" font-family="Arial, sans-serif" font-size="28" font-weight="900" fill="#111">BUILDER<tspan fill="#f77f00">K</tspan> 3,050 SQ FT PLAN</text>
  <text x="1450" y="58" text-anchor="end" font-family="Arial, sans-serif" font-size="20" font-weight="700" fill="#6b6b6b">4 BED / 3.5 BATH / 3-CAR</text>
  
    <text x="50" y="101" font-family="Arial, sans-serif" font-size="24" font-weight="800" letter-spacing="3" fill="#f77f00">FIRST FLOOR</text>
    
    <rect x="45" y="119" width="260" height="220" rx="8" fill="#fffaf0" stroke="#111" stroke-width="4"/>
    <text x="175" y="237" text-anchor="middle" font-family="Arial, sans-serif" font-size="24" font-weight="700" fill="#111">Primary Suite</text>
    <rect x="305" y="119" width="145" height="115" rx="8" fill="#fffaf0" stroke="#111" stroke-width="4"/>
    <text x="377.5" y="184.5" text-anchor="middle" font-family="Arial, sans-serif" font-size="24" font-weight="700" fill="#111">Primary Bath</text>
    <rect x="450" y="119" width="130" height="115" rx="8" fill="#fffaf0" stroke="#111" stroke-width="4"/>
    <text x="515" y="184.5" text-anchor="middle" font-family="Arial, sans-serif" font-size="24" font-weight="700" fill="#111">WIC</text>
    <rect x="305" y="234" width="370" height="205" rx="8" fill="#fffaf0" stroke="#111" stroke-width="4"/>
    <text x="490" y="344.5" text-anchor="middle" font-family="Arial, sans-serif" font-size="24" font-weight="700" fill="#111">Great Room</text>
    <rect x="675" y="234" width="230" height="155" rx="8" fill="#fffaf0" stroke="#111" stroke-width="4"/>
    <text x="790" y="319.5" text-anchor="middle" font-family="Arial, sans-serif" font-size="24" font-weight="700" fill="#111">Kitchen</text>
    <rect x="905" y="234" width="145" height="155" rx="8" fill="#fffaf0" stroke="#111" stroke-width="4"/>
    <text x="977.5" y="319.5" text-anchor="middle" font-family="Arial, sans-serif" font-size="24" font-weight="700" fill="#111">Dining</text>
    <rect x="580" y="119" width="230" height="115" rx="8" fill="#fffaf0" stroke="#111" stroke-width="4"/>
    <text x="695" y="184.5" text-anchor="middle" font-family="Arial, sans-serif" font-size="24" font-weight="700" fill="#111">Office</text>
    <rect x="810" y="119" width="240" height="115" rx="8" fill="#fffaf0" stroke="#111" stroke-width="4"/>
    <text x="930" y="184.5" text-anchor="middle" font-family="Arial, sans-serif" font-size="24" font-weight="700" fill="#111">Entry / Stairs</text>
    <rect x="45" y="339" width="260" height="100" rx="8" fill="#fffaf0" stroke="#111" stroke-width="4"/>
    <text x="175" y="397" text-anchor="middle" font-family="Arial, sans-serif" font-size="24" font-weight="700" fill="#111">Lanai</text>
    <rect x="1050" y="119" width="360" height="260" rx="8" fill="#efe7d8" stroke="#111" stroke-width="4"/>
    <text x="1230" y="257" text-anchor="middle" font-family="Arial, sans-serif" font-size="24" font-weight="700" fill="#111">3-Car Garage</text>
    <rect x="1050" y="379" width="170" height="60" rx="8" fill="#fffaf0" stroke="#111" stroke-width="4"/>
    <text x="1135" y="417" text-anchor="middle" font-family="Arial, sans-serif" font-size="24" font-weight="700" fill="#111">Laundry</text>
    <rect x="1220" y="379" width="190" height="60" rx="8" fill="#fffaf0" stroke="#111" stroke-width="4"/>
    <text x="1315" y="417" text-anchor="middle" font-family="Arial, sans-serif" font-size="24" font-weight="700" fill="#111">Powder</text>
    <text x="50" y="521" font-family="Arial, sans-serif" font-size="24" font-weight="800" letter-spacing="3" fill="#f77f00">SECOND FLOOR</text>
    
    <rect x="45" y="539" width="255" height="165" rx="8" fill="#fffaf0" stroke="#111" stroke-width="4"/>
    <text x="172.5" y="629.5" text-anchor="middle" font-family="Arial, sans-serif" font-size="24" font-weight="700" fill="#111">Bed 2</text>
    <rect x="300" y="539" width="255" height="165" rx="8" fill="#fffaf0" stroke="#111" stroke-width="4"/>
    <text x="427.5" y="629.5" text-anchor="middle" font-family="Arial, sans-serif" font-size="24" font-weight="700" fill="#111">Bed 3</text>
    <rect x="555" y="539" width="255" height="165" rx="8" fill="#fffaf0" stroke="#111" stroke-width="4"/>
    <text x="682.5" y="629.5" text-anchor="middle" font-family="Arial, sans-serif" font-size="24" font-weight="700" fill="#111">Bed 4</text>
    <rect x="810" y="539" width="170" height="165" rx="8" fill="#fffaf0" stroke="#111" stroke-width="4"/>
    <text x="895" y="629.5" text-anchor="middle" font-family="Arial, sans-serif" font-size="24" font-weight="700" fill="#111">Bath 2</text>
    <rect x="980" y="539" width="170" height="165" rx="8" fill="#fffaf0" stroke="#111" stroke-width="4"/>
    <text x="1065" y="629.5" text-anchor="middle" font-family="Arial, sans-serif" font-size="24" font-weight="700" fill="#111">Bath 3</text>
    <rect x="1150" y="539" width="260" height="165" rx="8" fill="#fffaf0" stroke="#111" stroke-width="4"/>
    <text x="1280" y="629.5" text-anchor="middle" font-family="Arial, sans-serif" font-size="24" font-weight="700" fill="#111">Loft</text>
  <text x="50" y="758" font-family="Arial, sans-serif" font-size="18" fill="#6b6b6b">Concept floor plan for website review. Final construction drawings require site-specific architectural/engineering review.</text>
</svg>