<svg xmlns="http://www.w3.org/2000/svg" viewBox="0 0 1500 800" role="img" aria-labelledby="title desc">
  <title id="title">3,300 sq ft two story floor plan</title>
  <desc id="desc">5 bedroom, 4 bath two story concept floor plan with 3-Car garage.</desc>
  <rect width="1500" height="800" fill="#faf8f3"/>
  <rect x="24" y="24" width="1452" height="752" rx="24" fill="#fff" stroke="#e8e0d0" stroke-width="4"/>
  <text x="50" y="58" font-family="Arial, sans-serif" font-size="28" font-weight="900" fill="#111">BUILDER<tspan fill="#f77f00">K</tspan> 3,300 SQ FT PLAN</text>
  <text x="1450" y="58" text-anchor="end" font-family="Arial, sans-serif" font-size="20" font-weight="700" fill="#6b6b6b">5 BED / 4 BATH / 3-CAR</text>
  
    <text x="50" y="101" font-family="Arial, sans-serif" font-size="24" font-weight="800" letter-spacing="3" fill="#f77f00">FIRST FLOOR</text>
    
    <rect x="45" y="119" width="255" height="205" rx="8" fill="#fffaf0" stroke="#111" stroke-width="4"/>
    <text x="172.5" y="229.5" text-anchor="middle" font-family="Arial, sans-serif" font-size="24" font-weight="700" fill="#111">Primary Suite</text>
    <rect x="300" y="119" width="145" height="105" rx="8" fill="#fffaf0" stroke="#111" stroke-width="4"/>
    <text x="372.5" y="179.5" text-anchor="middle" font-family="Arial, sans-serif" font-size="24" font-weight="700" fill="#111">Primary Bath</text>
    <rect x="445" y="119" width="125" height="105" rx="8" fill="#fffaf0" stroke="#111" stroke-width="4"/>
    <text x="507.5" y="179.5" text-anchor="middle" font-family="Arial, sans-serif" font-size="24" font-weight="700" fill="#111">WIC</text>
    <rect x="300" y="224" width="360" height="215" rx="8" fill="#fffaf0" stroke="#111" stroke-width="4"/>
    <text x="480" y="339.5" text-anchor="middle" font-family="Arial, sans-serif" font-size="24" font-weight="700" fill="#111">Great Room</text>
    <rect x="660" y="224" width="235" height="155" rx="8" fill="#fffaf0" stroke="#111" stroke-width="4"/>
    <text x="777.5" y="309.5" text-anchor="middle" font-family="Arial, sans-serif" font-size="24" font-weight="700" fill="#111">Kitchen</text>
    <rect x="895" y="224" width="155" height="155" rx="8" fill="#fffaf0" stroke="#111" stroke-width="4"/>
    <text x="972.5" y="309.5" text-anchor="middle" font-family="Arial, sans-serif" font-size="24" font-weight="700" fill="#111">Dining</text>
    <rect x="570" y="119" width="240" height="105" rx="8" fill="#fffaf0" stroke="#111" stroke-width="4"/>
    <text x="690" y="179.5" text-anchor="middle" font-family="Arial, sans-serif" font-size="24" font-weight="700" fill="#111">Guest Suite</text>
    <rect x="810" y="119" width="110" height="105" rx="8" fill="#fffaf0" stroke="#111" stroke-width="4"/>
    <text x="865" y="179.5" text-anchor="middle" font-family="Arial, sans-serif" font-size="24" font-weight="700" fill="#111">Bath 4</text>
    <rect x="920" y="119" width="130" height="105" rx="8" fill="#fffaf0" stroke="#111" stroke-width="4"/>
    <text x="985" y="179.5" text-anchor="middle" font-family="Arial, sans-serif" font-size="24" font-weight="700" fill="#111">Entry</text>
    <rect x="45" y="324" width="255" height="115" rx="8" fill="#fffaf0" stroke="#111" stroke-width="4"/>
    <text x="172.5" y="389.5" text-anchor="middle" font-family="Arial, sans-serif" font-size="24" font-weight="700" fill="#111">Lanai</text>
    <rect x="1050" y="119" width="370" height="260" rx="8" fill="#efe7d8" stroke="#111" stroke-width="4"/>
    <text x="1235" y="257" text-anchor="middle" font-family="Arial, sans-serif" font-size="24" font-weight="700" fill="#111">3-Car Garage</text>
    <rect x="1050" y="379" width="185" height="60" rx="8" fill="#fffaf0" stroke="#111" stroke-width="4"/>
    <text x="1142.5" y="417" text-anchor="middle" font-family="Arial, sans-serif" font-size="24" font-weight="700" fill="#111">Laundry</text>
    <rect x="1235" y="379" width="185" height="60" rx="8" fill="#fffaf0" stroke="#111" stroke-width="4"/>
    <text x="1327.5" y="417" text-anchor="middle" font-family="Arial, sans-serif" font-size="24" font-weight="700" fill="#111">Storage</text>
    <text x="50" y="521" font-family="Arial, sans-serif" font-size="24" font-weight="800" letter-spacing="3" fill="#f77f00">SECOND FLOOR</text>
    
    <rect x="45" y="539" width="235" height="165" rx="8" fill="#fffaf0" stroke="#111" stroke-width="4"/>
    <text x="162.5" y="629.5" text-anchor="middle" font-family="Arial, sans-serif" font-size="24" font-weight="700" fill="#111">Bed 3</text>
    <rect x="280" y="539" width="235" height="165" rx="8" fill="#fffaf0" stroke="#111" stroke-width="4"/>
    <text x="397.5" y="629.5" text-anchor="middle" font-family="Arial, sans-serif" font-size="24" font-weight="700" fill="#111">Bed 4</text>
    <rect x="515" y="539" width="235" height="165" rx="8" fill="#fffaf0" stroke="#111" stroke-width="4"/>
    <text x="632.5" y="629.5" text-anchor="middle" font-family="Arial, sans-serif" font-size="24" font-weight="700" fill="#111">Bed 5</text>
    <rect x="750" y="539" width="165" height="165" rx="8" fill="#fffaf0" stroke="#111" stroke-width="4"/>
    <text x="832.5" y="629.5" text-anchor="middle" font-family="Arial, sans-serif" font-size="24" font-weight="700" fill="#111">Bath 2</text>
    <rect x="915" y="539" width="165" height="165" rx="8" fill="#fffaf0" stroke="#111" stroke-width="4"/>
    <text x="997.5" y="629.5" text-anchor="middle" font-family="Arial, sans-serif" font-size="24" font-weight="700" fill="#111">Bath 3</text>
    <rect x="1080" y="539" width="340" height="165" rx="8" fill="#fffaf0" stroke="#111" stroke-width="4"/>
    <text x="1250" y="629.5" text-anchor="middle" font-family="Arial, sans-serif" font-size="24" font-weight="700" fill="#111">Loft / Flex</text>
  <text x="50" y="758" font-family="Arial, sans-serif" font-size="18" fill="#6b6b6b">Concept floor plan for website review. Final construction drawings require site-specific architectural/engineering review.</text>
</svg>